<svg xmlns="http://www.w3.org/2000/svg" viewBox="0 0 980 430">
<defs>
<marker id="arrBlue" markerWidth="9" markerHeight="9" refX="7" refY="3.5" orient="auto"><path d="M0,0 L7,3.5 L0,7 Z" fill="#1e3a8a"/></marker>
<marker id="arrGreen" markerWidth="9" markerHeight="9" refX="7" refY="3.5" orient="auto"><path d="M0,0 L7,3.5 L0,7 Z" fill="#16a34a"/></marker>
<marker id="arrRed" markerWidth="9" markerHeight="9" refX="7" refY="3.5" orient="auto"><path d="M0,0 L7,3.5 L0,7 Z" fill="#dc2626"/></marker>
</defs>
<rect width="980" height="430" rx="20" fill="#fff"/>
<text x="36" y="45" font-family="Arial, sans-serif" font-size="25" font-weight="700" fill="#1e3a8a">Cantidad de movimiento lineal y conservación</text>
<text x="36" y="76" font-family="Arial, sans-serif" font-size="16" fill="#64748b">Si el impulso externo neto es despreciable, el momento total del sistema se conserva.</text>
<rect x="42" y="110" width="420" height="165" rx="18" fill="#eef6ff" stroke="#2563eb"/>
<text x="65" y="143" font-family="Arial, sans-serif" font-size="20" font-weight="700" fill="#1e3a8a">Antes de la interacción</text>
<line x1="70" y1="230" x2="435" y2="230" stroke="#64748b" stroke-width="3"/>
<rect x="105" y="176" width="86" height="52" rx="6" fill="#dbeafe" stroke="#2563eb" stroke-width="3"/>
<text x="132" y="209" font-family="Arial, sans-serif" font-size="22" fill="#0f172a">m₁</text>
<line x1="195" y1="202" x2="292" y2="202" stroke="#16a34a" stroke-width="4" marker-end="url(#arrGreen)"/>
<text x="216" y="190" font-family="Arial, sans-serif" font-size="18" fill="#16a34a">v₁ᵢ</text>
<rect x="330" y="176" width="86" height="52" rx="6" fill="#fff7ed" stroke="#f59e0b" stroke-width="3"/>
<text x="357" y="209" font-family="Arial, sans-serif" font-size="22" fill="#0f172a">m₂</text>
<line x1="330" y1="202" x2="265" y2="202" stroke="#dc2626" stroke-width="4" marker-end="url(#arrRed)"/>
<text x="284" y="190" font-family="Arial, sans-serif" font-size="18" fill="#dc2626">v₂ᵢ</text>
<line x1="480" y1="200" x2="510" y2="200" stroke="#1e3a8a" stroke-width="4" marker-end="url(#arrBlue)"/>
<text x="462" y="238" font-family="Arial, sans-serif" font-size="18" font-weight="700" fill="#1e3a8a">interacción</text>
<rect x="520" y="110" width="418" height="165" rx="18" fill="#eef6ff" stroke="#2563eb"/>
<text x="543" y="143" font-family="Arial, sans-serif" font-size="20" font-weight="700" fill="#1e3a8a">Después de la interacción</text>
<line x1="548" y1="230" x2="915" y2="230" stroke="#64748b" stroke-width="3"/>
<rect x="594" y="176" width="86" height="52" rx="6" fill="#dbeafe" stroke="#2563eb" stroke-width="3"/>
<text x="621" y="209" font-family="Arial, sans-serif" font-size="22" fill="#0f172a">m₁</text>
<line x1="685" y1="202" x2="765" y2="202" stroke="#16a34a" stroke-width="4" marker-end="url(#arrGreen)"/>
<text x="707" y="190" font-family="Arial, sans-serif" font-size="18" fill="#16a34a">v₁f</text>
<rect x="795" y="176" width="86" height="52" rx="6" fill="#fff7ed" stroke="#f59e0b" stroke-width="3"/>
<text x="822" y="209" font-family="Arial, sans-serif" font-size="22" fill="#0f172a">m₂</text>
<line x1="885" y1="202" x2="930" y2="202" stroke="#dc2626" stroke-width="4" marker-end="url(#arrRed)"/>
<text x="895" y="190" font-family="Arial, sans-serif" font-size="18" fill="#dc2626">v₂f</text>
<rect x="42" y="305" width="896" height="92" rx="18" fill="#ffffff" stroke="#2563eb"/>
<text x="65" y="335" font-family="Arial, sans-serif" font-size="19" font-weight="700" fill="#1e3a8a">Conservación del momento lineal</text>
<text x="65" y="368" font-family="Arial, sans-serif" font-size="24" fill="#0f172a">p = m·v</text>
<text x="242" y="368" font-family="Arial, sans-serif" font-size="24" fill="#0f172a">P_sist = Σ pᵢ</text>
<text x="513" y="368" font-family="Arial, sans-serif" font-size="24" fill="#0f172a">P_i = P_f</text>
<text x="690" y="368" font-family="Arial, sans-serif" font-size="15" fill="#64748b">si ΣF_ext ≈ 0</text>
</svg>