<svg xmlns="http://www.w3.org/2000/svg" viewBox="0 0 980 430">
  <defs>
    <marker id="arrBlue" markerWidth="9" markerHeight="9" refX="7" refY="3.5" orient="auto"><path d="M0,0 L7,3.5 L0,7 Z" fill="#1e3a8a"/></marker>
    <marker id="arrRed" markerWidth="9" markerHeight="9" refX="7" refY="3.5" orient="auto"><path d="M0,0 L7,3.5 L0,7 Z" fill="#dc2626"/></marker>
    <marker id="arrGreen" markerWidth="9" markerHeight="9" refX="7" refY="3.5" orient="auto"><path d="M0,0 L7,3.5 L0,7 Z" fill="#16a34a"/></marker>
  </defs>
  <rect width="980" height="430" rx="20" fill="#ffffff"/>
  <text x="36" y="44" font-family="Arial, sans-serif" font-size="25" font-weight="700" fill="#1e3a8a">Sistema de partículas y cuerpo rígido</text>
  <text x="36" y="74" font-family="Arial, sans-serif" font-size="15" fill="#475569">El centro de masa permite representar el movimiento traslacional del conjunto; el cuerpo rígido agrega la rotación.</text>

  <rect x="42" y="105" width="420" height="270" rx="18" fill="#f8fbff" stroke="#bfdbfe"/>
  <text x="65" y="137" font-family="Arial, sans-serif" font-size="20" font-weight="700" fill="#1e3a8a">Sistema de partículas</text>
  <circle cx="128" cy="225" r="17" fill="#dbeafe" stroke="#2563eb" stroke-width="3"/>
  <circle cx="214" cy="170" r="22" fill="#dbeafe" stroke="#2563eb" stroke-width="3"/>
  <circle cx="292" cy="250" r="14" fill="#dbeafe" stroke="#2563eb" stroke-width="3"/>
  <circle cx="368" cy="206" r="19" fill="#dbeafe" stroke="#2563eb" stroke-width="3"/>
  <line x1="128" y1="225" x2="214" y2="170" stroke="#cbd5e1" stroke-width="2" stroke-dasharray="5 5"/>
  <line x1="214" y1="170" x2="292" y2="250" stroke="#cbd5e1" stroke-width="2" stroke-dasharray="5 5"/>
  <line x1="292" y1="250" x2="368" y2="206" stroke="#cbd5e1" stroke-width="2" stroke-dasharray="5 5"/>
  <circle cx="251" cy="212" r="8" fill="#dc2626"/>
  <text x="265" y="216" font-family="Arial, sans-serif" font-size="17" fill="#dc2626">CM</text>
  <line x1="251" y1="212" x2="320" y2="145" stroke="#dc2626" stroke-width="3" marker-end="url(#arrRed)"/>
  <text x="325" y="145" font-family="Arial, sans-serif" font-size="16" fill="#dc2626">a_CM</text>
  <line x1="128" y1="225" x2="94" y2="188" stroke="#16a34a" stroke-width="3" marker-end="url(#arrGreen)"/>
  <text x="65" y="184" font-family="Arial, sans-serif" font-size="16" fill="#16a34a">F_ext</text>
  <text x="70" y="340" font-family="Arial, sans-serif" font-size="15" fill="#334155">Se suman las fuerzas externas:</text>
  <text x="70" y="363" font-family="Arial, sans-serif" font-size="16" fill="#0f172a">ΣF_ext = M·a_CM</text>

  <rect x="520" y="105" width="418" height="270" rx="18" fill="#f8fbff" stroke="#bfdbfe"/>
  <text x="543" y="137" font-family="Arial, sans-serif" font-size="20" font-weight="700" fill="#1e3a8a">Cuerpo rígido</text>
  <g transform="translate(705 222) rotate(-18)">
    <rect x="-110" y="-38" width="220" height="76" rx="12" fill="#dbeafe" stroke="#2563eb" stroke-width="3"/>
    <circle cx="0" cy="0" r="8" fill="#dc2626"/>
    <text x="12" y="5" font-family="Arial, sans-serif" font-size="16" fill="#dc2626">CM</text>
    <line x1="-88" y1="-28" x2="86" y2="-28" stroke="#64748b" stroke-width="2"/>
    <line x1="-88" y1="28" x2="86" y2="28" stroke="#64748b" stroke-width="2"/>
  </g>
  <path d="M625 132 A105 105 0 0 1 813 159" fill="none" stroke="#1e3a8a" stroke-width="3" marker-end="url(#arrBlue)"/>
  <text x="815" y="160" font-family="Arial, sans-serif" font-size="18" fill="#1e3a8a">ω</text>
  <line x1="790" y1="185" x2="880" y2="145" stroke="#16a34a" stroke-width="3" marker-end="url(#arrGreen)"/>
  <text x="884" y="145" font-family="Arial, sans-serif" font-size="16" fill="#16a34a">F</text>
  <line x1="705" y1="222" x2="790" y2="185" stroke="#94a3b8" stroke-width="2" stroke-dasharray="5 5"/>
  <text x="733" y="197" font-family="Arial, sans-serif" font-size="16" fill="#475569">r</text>
  <text x="548" y="340" font-family="Arial, sans-serif" font-size="15" fill="#334155">Traslación + rotación:</text>
  <text x="548" y="363" font-family="Arial, sans-serif" font-size="16" fill="#0f172a">ΣF_ext = M·a_CM     y     Στ_ext = I·α</text>
</svg>