<?xml version="1.0" encoding="UTF-8"?>
<svg xmlns="http://www.w3.org/2000/svg" xmlns:xlink="http://www.w3.org/1999/xlink" width="156.676pt" height="145.439pt" viewBox="0 0 156.676 145.439">
<defs>
<g>
<g id="glyph-0-0">
<path d="M 5.328125 -5.90625 C 5.1875 -5.78125 4.859375 -5.5 4.859375 -5.3125 C 4.859375 -5.21875 4.953125 -5.125 5.0625 -5.125 C 5.15625 -5.125 5.203125 -5.1875 5.25 -5.25 C 5.375 -5.390625 5.59375 -5.671875 6.03125 -5.890625 C 6.109375 -5.9375 6.203125 -5.984375 6.203125 -6.109375 C 6.203125 -6.203125 6.125 -6.25 6.0625 -6.296875 C 5.84375 -6.453125 5.734375 -6.625 5.65625 -6.859375 C 5.640625 -6.953125 5.59375 -7.078125 5.453125 -7.078125 C 5.3125 -7.078125 5.265625 -6.953125 5.265625 -6.875 C 5.265625 -6.828125 5.34375 -6.515625 5.5 -6.296875 L 2.15625 -6.296875 C 1.984375 -6.296875 1.8125 -6.296875 1.8125 -6.109375 C 1.8125 -5.90625 1.984375 -5.90625 2.15625 -5.90625 Z M 5.328125 -5.90625 "/>
</g>
<g id="glyph-0-1">
<path d="M 3 -3.140625 L 4.6875 -3.140625 C 6.109375 -3.140625 7.484375 -4.171875 7.484375 -5.28125 C 7.484375 -6.046875 6.828125 -6.78125 5.53125 -6.78125 L 2.3125 -6.78125 C 2.125 -6.78125 2.015625 -6.78125 2.015625 -6.59375 C 2.015625 -6.46875 2.109375 -6.46875 2.296875 -6.46875 C 2.4375 -6.46875 2.609375 -6.453125 2.734375 -6.453125 C 2.890625 -6.421875 2.953125 -6.40625 2.953125 -6.296875 C 2.953125 -6.25 2.9375 -6.21875 2.90625 -6.109375 L 1.578125 -0.78125 C 1.484375 -0.390625 1.453125 -0.3125 0.671875 -0.3125 C 0.5 -0.3125 0.390625 -0.3125 0.390625 -0.125 C 0.390625 0 0.515625 0 0.546875 0 C 0.828125 0 1.53125 -0.03125 1.8125 -0.03125 C 2.015625 -0.03125 2.234375 -0.015625 2.4375 -0.015625 C 2.65625 -0.015625 2.875 0 3.078125 0 C 3.15625 0 3.28125 0 3.28125 -0.203125 C 3.28125 -0.3125 3.1875 -0.3125 3 -0.3125 C 2.640625 -0.3125 2.359375 -0.3125 2.359375 -0.484375 C 2.359375 -0.546875 2.375 -0.59375 2.390625 -0.65625 Z M 3.71875 -6.09375 C 3.8125 -6.4375 3.828125 -6.46875 4.25 -6.46875 L 5.203125 -6.46875 C 6.03125 -6.46875 6.5625 -6.203125 6.5625 -5.515625 C 6.5625 -5.125 6.359375 -4.28125 5.96875 -3.921875 C 5.484375 -3.46875 4.875 -3.390625 4.4375 -3.390625 L 3.046875 -3.390625 Z M 3.71875 -6.09375 "/>
</g>
<g id="glyph-0-2">
<path d="M 7.5 -5.734375 C 7.59375 -6.125 7.78125 -6.4375 8.578125 -6.46875 C 8.625 -6.46875 8.734375 -6.484375 8.734375 -6.671875 C 8.734375 -6.671875 8.734375 -6.78125 8.609375 -6.78125 C 8.28125 -6.78125 7.9375 -6.75 7.609375 -6.75 C 7.265625 -6.75 6.921875 -6.78125 6.59375 -6.78125 C 6.53125 -6.78125 6.421875 -6.78125 6.421875 -6.578125 C 6.421875 -6.46875 6.515625 -6.46875 6.59375 -6.46875 C 7.15625 -6.453125 7.265625 -6.25 7.265625 -6.03125 C 7.265625 -6 7.25 -5.859375 7.25 -5.828125 L 6.125 -1.40625 L 3.9375 -6.59375 C 3.859375 -6.765625 3.84375 -6.78125 3.625 -6.78125 L 2.296875 -6.78125 C 2.09375 -6.78125 2 -6.78125 2 -6.578125 C 2 -6.46875 2.09375 -6.46875 2.28125 -6.46875 C 2.328125 -6.46875 2.953125 -6.46875 2.953125 -6.375 L 1.625 -1.046875 C 1.53125 -0.65625 1.359375 -0.34375 0.5625 -0.3125 C 0.5 -0.3125 0.390625 -0.296875 0.390625 -0.109375 C 0.390625 -0.046875 0.4375 0 0.515625 0 C 0.828125 0 1.1875 -0.03125 1.515625 -0.03125 C 1.84375 -0.03125 2.203125 0 2.53125 0 C 2.578125 0 2.703125 0 2.703125 -0.203125 C 2.703125 -0.296875 2.625 -0.3125 2.515625 -0.3125 C 1.9375 -0.328125 1.859375 -0.546875 1.859375 -0.75 C 1.859375 -0.8125 1.859375 -0.859375 1.890625 -0.96875 L 3.203125 -6.21875 C 3.25 -6.15625 3.25 -6.125 3.296875 -6.03125 L 5.765625 -0.1875 C 5.828125 -0.015625 5.859375 0 5.953125 0 C 6.0625 0 6.0625 -0.03125 6.109375 -0.203125 Z M 7.5 -5.734375 "/>
</g>
<g id="glyph-0-3">
<path d="M 3.640625 -3.96875 L 4.5 -3.96875 C 4.6875 -3.96875 4.796875 -3.96875 4.796875 -4.171875 C 4.796875 -4.28125 4.6875 -4.28125 4.53125 -4.28125 L 3.703125 -4.28125 L 3.90625 -5.40625 C 3.953125 -5.609375 4.09375 -6.3125 4.140625 -6.4375 C 4.234375 -6.625 4.40625 -6.78125 4.609375 -6.78125 C 4.65625 -6.78125 4.90625 -6.78125 5.09375 -6.59375 C 4.65625 -6.5625 4.5625 -6.21875 4.5625 -6.0625 C 4.5625 -5.828125 4.75 -5.71875 4.9375 -5.71875 C 5.1875 -5.71875 5.484375 -5.9375 5.484375 -6.3125 C 5.484375 -6.765625 5.015625 -7 4.609375 -7 C 4.28125 -7 3.65625 -6.8125 3.359375 -5.828125 C 3.296875 -5.625 3.265625 -5.53125 3.03125 -4.28125 L 2.34375 -4.28125 C 2.15625 -4.28125 2.046875 -4.28125 2.046875 -4.09375 C 2.046875 -3.96875 2.140625 -3.96875 2.328125 -3.96875 L 2.96875 -3.96875 L 2.234375 -0.046875 C 2.046875 0.90625 1.890625 1.8125 1.375 1.8125 C 1.328125 1.8125 1.078125 1.8125 0.890625 1.640625 C 1.34375 1.609375 1.4375 1.25 1.4375 1.09375 C 1.4375 0.875 1.265625 0.75 1.078125 0.75 C 0.8125 0.75 0.53125 0.96875 0.53125 1.34375 C 0.53125 1.796875 0.96875 2.03125 1.375 2.03125 C 1.921875 2.03125 2.3125 1.453125 2.484375 1.078125 C 2.8125 0.453125 3.03125 -0.75 3.046875 -0.828125 Z M 3.640625 -3.96875 "/>
</g>
<g id="glyph-0-4">
<path d="M 4.515625 -4.953125 C 4.515625 -5.609375 4.328125 -7 3.328125 -7 C 1.9375 -7 0.421875 -4.203125 0.421875 -1.921875 C 0.421875 -0.984375 0.703125 0.109375 1.609375 0.109375 C 3 0.109375 4.515625 -2.734375 4.515625 -4.953125 Z M 1.46875 -3.609375 C 1.640625 -4.234375 1.828125 -5.03125 2.234375 -5.734375 C 2.5 -6.21875 2.875 -6.78125 3.3125 -6.78125 C 3.796875 -6.78125 3.859375 -6.140625 3.859375 -5.578125 C 3.859375 -5.09375 3.78125 -4.578125 3.546875 -3.609375 Z M 3.453125 -3.28125 C 3.34375 -2.828125 3.140625 -1.984375 2.765625 -1.265625 C 2.40625 -0.59375 2.03125 -0.109375 1.609375 -0.109375 C 1.28125 -0.109375 1.078125 -0.390625 1.078125 -1.3125 C 1.078125 -1.734375 1.125 -2.3125 1.390625 -3.28125 Z M 3.453125 -3.28125 "/>
</g>
<g id="glyph-1-0">
<path d="M 1.4375 -4.953125 C 1.4375 -5.0625 1.4375 -5.21875 1.265625 -5.21875 C 1.09375 -5.21875 1.09375 -5.046875 1.09375 -4.921875 L 1.09375 1.4375 C 1.09375 1.5625 1.09375 1.734375 1.265625 1.734375 C 1.4375 1.734375 1.4375 1.578125 1.4375 1.46875 Z M 2.96875 -4.921875 C 2.96875 -5.046875 2.96875 -5.21875 2.796875 -5.21875 C 2.625 -5.21875 2.625 -5.0625 2.625 -4.953125 L 2.625 1.46875 C 2.625 1.578125 2.625 1.734375 2.796875 1.734375 C 2.96875 1.734375 2.96875 1.5625 2.96875 1.4375 Z M 2.96875 -4.921875 "/>
</g>
<g id="glyph-2-0">
<path d="M 0.265625 -3.859375 L 0.265625 -3.578125 L 0.40625 -3.578125 C 0.671875 -3.578125 0.953125 -3.546875 0.953125 -3.125 L 0.953125 -0.65625 C 0.953125 -0.296875 0.71875 -0.28125 0.265625 -0.28125 L 0.265625 -0.015625 L 0.890625 -0.03125 L 2.453125 -0.03125 L 2.453125 -0.28125 L 2.140625 -0.28125 C 1.84375 -0.28125 1.59375 -0.328125 1.59375 -0.65625 L 1.59375 -2.15625 C 1.65625 -2.78125 1.828125 -3.734375 2.71875 -3.734375 L 2.71875 -3.71875 C 2.59375 -3.65625 2.546875 -3.515625 2.546875 -3.390625 C 2.546875 -3.140625 2.734375 -3 2.953125 -3 C 3.171875 -3 3.328125 -3.1875 3.328125 -3.390625 C 3.328125 -3.765625 2.96875 -3.953125 2.65625 -3.953125 C 2.109375 -3.953125 1.671875 -3.5 1.546875 -3 L 1.53125 -3.953125 Z M 0.265625 -3.859375 "/>
</g>
<g id="glyph-2-1">
<path d="M 1.09375 -3.46875 C 1.328125 -3.6875 1.703125 -3.78125 2.015625 -3.78125 C 2.34375 -3.78125 2.625 -3.609375 2.796875 -3.34375 C 2.96875 -3.09375 2.96875 -2.8125 2.96875 -2.53125 L 2.96875 -2.375 C 2.25 -2.28125 1.515625 -2.28125 0.890625 -1.828125 C 0.59375 -1.59375 0.359375 -1.25 0.359375 -0.890625 C 0.359375 -0.15625 1.25 0.09375 1.828125 0.09375 C 2.390625 0.09375 2.796875 -0.1875 3.0625 -0.65625 C 3.125 -0.28125 3.34375 0.046875 3.75 0.046875 C 4.296875 0.046875 4.53125 -0.40625 4.53125 -0.90625 L 4.53125 -1.3125 L 4.28125 -1.3125 L 4.28125 -0.859375 C 4.28125 -0.609375 4.234375 -0.265625 3.953125 -0.265625 C 3.65625 -0.265625 3.640625 -0.65625 3.640625 -0.859375 L 3.640625 -2.59375 C 3.640625 -3.546875 2.828125 -4 2.03125 -4 C 1.484375 -4 0.65625 -3.765625 0.65625 -3.0625 C 0.65625 -2.828125 0.796875 -2.640625 1.125 -2.640625 C 1.34375 -2.640625 1.484375 -2.84375 1.484375 -3.0625 C 1.484375 -3.296875 1.296875 -3.421875 1.09375 -3.46875 Z M 2.96875 -2.15625 L 2.96875 -1.265625 C 2.96875 -0.65625 2.53125 -0.140625 1.921875 -0.140625 L 1.84375 -0.140625 C 1.4375 -0.171875 1.109375 -0.484375 1.109375 -0.890625 C 1.109375 -1.75 2.125 -2.15625 2.96875 -2.15625 Z M 2.96875 -2.15625 "/>
</g>
<g id="glyph-2-2">
<path d="M 0.3125 -3.859375 L 0.3125 -3.578125 L 0.453125 -3.578125 C 0.71875 -3.578125 1 -3.546875 1 -3.125 L 1 -0.65625 C 1 -0.296875 0.765625 -0.28125 0.3125 -0.28125 L 0.3125 -0.015625 L 0.953125 -0.03125 L 2.34375 -0.03125 L 2.34375 -0.28125 L 2.140625 -0.28125 C 1.890625 -0.28125 1.65625 -0.328125 1.65625 -0.65625 L 1.65625 -2.453125 C 1.71875 -3.078125 2.140625 -3.734375 2.90625 -3.734375 C 3.484375 -3.734375 3.546875 -3.140625 3.546875 -2.71875 L 3.546875 -0.625 C 3.546875 -0.296875 3.28125 -0.28125 3 -0.28125 L 2.859375 -0.28125 L 2.859375 -0.015625 L 3.5 -0.03125 L 4.890625 -0.03125 L 4.890625 -0.28125 L 4.6875 -0.28125 C 4.4375 -0.28125 4.203125 -0.328125 4.203125 -0.65625 L 4.203125 -2.453125 C 4.265625 -3.078125 4.6875 -3.734375 5.453125 -3.734375 C 6.03125 -3.734375 6.09375 -3.140625 6.09375 -2.71875 L 6.09375 -0.625 C 6.09375 -0.296875 5.84375 -0.28125 5.546875 -0.28125 L 5.40625 -0.28125 L 5.40625 -0.015625 L 7.4375 -0.015625 L 7.4375 -0.28125 L 7.28125 -0.28125 C 7.015625 -0.28125 6.75 -0.3125 6.75 -0.640625 L 6.75 -2.65625 C 6.75 -2.921875 6.75 -3.1875 6.609375 -3.4375 C 6.375 -3.859375 5.921875 -3.953125 5.484375 -3.953125 C 4.9375 -3.953125 4.375 -3.59375 4.1875 -3.09375 L 4.171875 -3.09375 C 4.09375 -3.71875 3.515625 -3.953125 2.96875 -3.953125 C 2.390625 -3.953125 1.828125 -3.625 1.625 -3.0625 L 1.609375 -3.953125 Z M 0.3125 -3.859375 "/>
</g>
<g id="glyph-2-3">
<path d="M 0.265625 -3.859375 L 0.265625 -3.578125 L 0.4375 -3.578125 C 0.703125 -3.578125 0.953125 -3.546875 0.953125 -3.1875 L 0.953125 1.078125 C 0.953125 1.453125 0.6875 1.453125 0.265625 1.453125 L 0.265625 1.71875 L 0.90625 1.703125 L 2.3125 1.703125 L 2.3125 1.453125 L 2.078125 1.453125 C 1.84375 1.453125 1.625 1.40625 1.625 1.09375 L 1.625 -0.4375 C 1.921875 -0.109375 2.28125 0.09375 2.75 0.09375 C 3.8125 0.09375 4.796875 -0.78125 4.796875 -1.9375 C 4.796875 -2.953125 4 -3.953125 2.859375 -3.953125 C 2.359375 -3.953125 1.921875 -3.734375 1.59375 -3.390625 L 1.59375 -3.953125 Z M 4 -1.796875 C 3.96875 -1.09375 3.5625 -0.140625 2.65625 -0.140625 C 2.203125 -0.140625 1.625 -0.59375 1.625 -0.984375 L 1.625 -2.453125 C 1.625 -2.5625 1.609375 -2.671875 1.609375 -2.78125 C 1.609375 -3.28125 2.25 -3.703125 2.765625 -3.703125 C 3.609375 -3.703125 4.015625 -2.65625 4.015625 -1.96875 C 4.015625 -1.90625 4.015625 -1.84375 4 -1.796875 Z M 4 -1.796875 "/>
</g>
<g id="glyph-2-4">
<path d="M 2.8125 -6.109375 L 2.8125 -5.84375 L 2.90625 -5.84375 C 3.265625 -5.84375 3.5 -5.8125 3.5 -5.296875 L 3.5 -3.421875 C 3.203125 -3.765625 2.78125 -3.953125 2.34375 -3.953125 C 1.234375 -3.953125 0.296875 -3.015625 0.296875 -1.921875 C 0.296875 -0.90625 1.140625 0.09375 2.25 0.09375 C 2.671875 0.09375 3.25 -0.109375 3.46875 -0.484375 L 3.484375 0.09375 L 4.828125 -0.015625 L 4.828125 -0.28125 L 4.6875 -0.28125 C 4.390625 -0.28125 4.140625 -0.3125 4.140625 -0.734375 L 4.140625 -6.21875 Z M 1.078125 -1.71875 L 1.078125 -1.84375 C 1.078125 -2.578125 1.265625 -3.71875 2.390625 -3.71875 C 2.84375 -3.71875 3.484375 -3.375 3.484375 -2.828125 C 3.484375 -2.703125 3.484375 -2.59375 3.484375 -2.484375 L 3.484375 -1.015625 C 3.484375 -0.90625 3.4375 -0.828125 3.375 -0.734375 C 3.125 -0.390625 2.71875 -0.140625 2.3125 -0.140625 C 1.953125 -0.140625 1.640625 -0.3125 1.421875 -0.59375 C 1.15625 -0.921875 1.125 -1.328125 1.078125 -1.71875 Z M 1.078125 -1.71875 "/>
</g>
<g id="glyph-2-5">
<path d="M 1.03125 -2.0625 L 3.671875 -2.0625 C 3.78125 -2.0625 3.828125 -2.109375 3.828125 -2.203125 C 3.828125 -3.328125 3.140625 -4 2.1875 -4 C 1.09375 -4 0.25 -3.0625 0.25 -1.96875 C 0.25 -0.859375 1.125 0.09375 2.34375 0.09375 C 2.96875 0.09375 3.625 -0.359375 3.796875 -0.96875 C 3.8125 -1 3.8125 -1.03125 3.8125 -1.078125 C 3.8125 -1.140625 3.765625 -1.1875 3.703125 -1.1875 C 3.546875 -1.1875 3.53125 -0.921875 3.4375 -0.796875 C 3.21875 -0.421875 2.78125 -0.15625 2.34375 -0.15625 L 2.28125 -0.15625 C 1.828125 -0.171875 1.40625 -0.484375 1.21875 -0.90625 C 1.046875 -1.265625 1.03125 -1.671875 1.03125 -2.0625 Z M 1.03125 -2.265625 C 1.046875 -2.859375 1.296875 -3.546875 1.9375 -3.75 C 2.015625 -3.765625 2.078125 -3.78125 2.15625 -3.78125 C 2.921875 -3.78125 3.203125 -2.984375 3.203125 -2.265625 Z M 1.03125 -2.265625 "/>
</g>
<g id="glyph-2-6">
<path d="M 1.359375 -5.5 C 1.359375 -4.859375 1.046875 -3.796875 0.171875 -3.796875 L 0.171875 -3.578125 L 0.953125 -3.578125 L 0.953125 -1.21875 C 0.953125 -0.9375 0.96875 -0.671875 1.109375 -0.421875 C 1.328125 -0.046875 1.765625 0.09375 2.1875 0.09375 L 2.265625 0.09375 C 2.9375 -0.03125 3.0625 -0.765625 3.0625 -1.296875 L 3.0625 -1.625 L 2.8125 -1.625 C 2.8125 -1.5 2.8125 -1.375 2.8125 -1.234375 C 2.8125 -0.84375 2.71875 -0.15625 2.203125 -0.15625 C 1.71875 -0.15625 1.609375 -0.71875 1.609375 -1.15625 L 1.609375 -3.578125 L 2.90625 -3.578125 L 2.90625 -3.859375 L 1.609375 -3.859375 L 1.609375 -5.5 Z M 1.359375 -5.5 "/>
</g>
<g id="glyph-2-7">
<path d="M 0.3125 -3.859375 L 0.3125 -3.578125 L 0.453125 -3.578125 C 0.71875 -3.578125 1 -3.546875 1 -3.125 L 1 -0.65625 C 1 -0.296875 0.765625 -0.28125 0.3125 -0.28125 L 0.3125 -0.015625 L 0.953125 -0.03125 L 2.34375 -0.03125 L 2.34375 -0.28125 L 2.140625 -0.28125 C 1.890625 -0.28125 1.65625 -0.328125 1.65625 -0.65625 L 1.65625 -2.265625 C 1.65625 -2.953125 2.0625 -3.734375 2.90625 -3.734375 C 3.390625 -3.734375 3.546875 -3.28125 3.546875 -2.71875 L 3.546875 -0.625 C 3.546875 -0.296875 3.28125 -0.28125 2.984375 -0.28125 L 2.84375 -0.28125 L 2.84375 -0.015625 L 3.484375 -0.03125 L 4.890625 -0.03125 L 4.890625 -0.28125 L 4.71875 -0.28125 C 4.453125 -0.28125 4.203125 -0.3125 4.203125 -0.640625 L 4.203125 -2.65625 C 4.203125 -2.921875 4.1875 -3.1875 4.0625 -3.421875 C 3.828125 -3.84375 3.375 -3.953125 2.9375 -3.953125 C 2.375 -3.953125 1.8125 -3.578125 1.625 -3.0625 L 1.609375 -3.953125 Z M 0.3125 -3.859375 "/>
</g>
<g id="glyph-2-8">
<path d="M 0.8125 -0.296875 C 1.09375 -0.015625 1.46875 0.09375 1.84375 0.09375 C 2.578125 0.09375 3.3125 -0.28125 3.3125 -1.15625 L 3.3125 -1.25 C 3.265625 -1.75 2.875 -2.140625 2.4375 -2.3125 C 2.203125 -2.390625 1.953125 -2.421875 1.71875 -2.46875 C 1.34375 -2.53125 0.765625 -2.640625 0.765625 -3.15625 C 0.765625 -3.6875 1.40625 -3.8125 1.796875 -3.8125 C 2.359375 -3.8125 2.765625 -3.484375 2.828125 -2.84375 C 2.828125 -2.765625 2.828125 -2.6875 2.9375 -2.6875 C 3 -2.6875 3.0625 -2.71875 3.078125 -2.78125 L 3.078125 -3.859375 C 3.078125 -3.921875 3.046875 -4 2.96875 -4 C 2.828125 -4 2.734375 -3.78125 2.625 -3.78125 L 2.609375 -3.78125 C 2.546875 -3.796875 2.484375 -3.859375 2.4375 -3.875 C 2.25 -3.96875 2.015625 -4 1.796875 -4 C 1.15625 -4 0.296875 -3.796875 0.296875 -2.890625 C 0.296875 -1.984375 1.34375 -1.828125 2 -1.703125 C 2.390625 -1.640625 2.8125 -1.40625 2.84375 -0.96875 C 2.84375 -0.328125 2.3125 -0.140625 1.84375 -0.140625 L 1.75 -0.140625 C 1.09375 -0.171875 0.734375 -0.65625 0.59375 -1.28125 C 0.5625 -1.375 0.5625 -1.515625 0.421875 -1.515625 C 0.328125 -1.515625 0.296875 -1.453125 0.296875 -1.375 L 0.296875 -0.21875 C 0.296875 -0.171875 0.296875 -0.140625 0.296875 -0.09375 C 0.296875 0 0.3125 0.09375 0.40625 0.09375 C 0.484375 0.09375 0.5625 -0.015625 0.609375 -0.078125 L 0.65625 -0.125 C 0.71875 -0.1875 0.765625 -0.234375 0.8125 -0.296875 Z M 0.8125 -0.296875 "/>
</g>
<g id="glyph-2-9">
<path d="M 1.015625 -3.859375 L 0.296875 -3.859375 L 0.296875 -3.578125 L 1.015625 -3.578125 L 1.015625 -0.625 C 1.015625 -0.296875 0.75 -0.28125 0.453125 -0.28125 L 0.328125 -0.28125 L 0.328125 -0.015625 L 0.953125 -0.03125 L 2.5 -0.03125 L 2.5 -0.28125 L 2.203125 -0.28125 C 1.890625 -0.28125 1.640625 -0.328125 1.640625 -0.703125 L 1.640625 -3.578125 L 2.6875 -3.578125 L 2.6875 -3.859375 L 1.625 -3.859375 L 1.625 -4.671875 C 1.625 -5.25 1.765625 -6.09375 2.4375 -6.09375 C 2.53125 -6.09375 2.625 -6.0625 2.703125 -6.03125 C 2.5625 -5.96875 2.46875 -5.828125 2.46875 -5.671875 C 2.46875 -5.4375 2.640625 -5.265625 2.875 -5.265625 C 3.140625 -5.265625 3.265625 -5.453125 3.265625 -5.671875 C 3.265625 -6.09375 2.8125 -6.3125 2.4375 -6.3125 C 1.8125 -6.3125 1.265625 -5.90625 1.0625 -5.3125 C 1.015625 -5.140625 1.015625 -4.984375 1.015625 -4.8125 Z M 1.015625 -3.859375 "/>
</g>
<g id="glyph-2-10">
<path d="M 3.25 -3.515625 C 3.046875 -3.453125 2.890625 -3.34375 2.890625 -3.09375 C 2.890625 -2.890625 3.03125 -2.6875 3.296875 -2.6875 C 3.53125 -2.6875 3.71875 -2.859375 3.71875 -3.125 C 3.71875 -3.765625 2.953125 -3.984375 2.40625 -4 L 2.328125 -4 C 1.28125 -4 0.296875 -3.15625 0.296875 -1.953125 C 0.296875 -0.859375 1.15625 0.09375 2.3125 0.09375 C 2.9375 0.09375 3.5 -0.234375 3.75 -0.875 C 3.765625 -0.921875 3.8125 -1.015625 3.8125 -1.078125 C 3.8125 -1.140625 3.75 -1.1875 3.6875 -1.1875 C 3.546875 -1.1875 3.53125 -0.953125 3.453125 -0.828125 C 3.25 -0.421875 2.84375 -0.15625 2.359375 -0.15625 C 1.390625 -0.15625 1.078125 -1.28125 1.078125 -1.96875 C 1.078125 -2.703125 1.328125 -3.75 2.34375 -3.75 C 2.578125 -3.75 2.84375 -3.71875 3.0625 -3.625 C 3.125 -3.59375 3.1875 -3.546875 3.25 -3.515625 Z M 3.25 -3.515625 "/>
</g>
<g id="glyph-2-11">
<path d="M 0.359375 -3.859375 L 0.359375 -3.578125 L 0.5 -3.578125 C 0.78125 -3.578125 1.015625 -3.53125 1.015625 -3.125 L 1.015625 -0.65625 C 1.015625 -0.296875 0.765625 -0.28125 0.328125 -0.28125 L 0.328125 -0.015625 L 2.265625 -0.015625 L 2.265625 -0.28125 L 2.125 -0.28125 C 1.875 -0.28125 1.640625 -0.3125 1.640625 -0.59375 L 1.640625 -3.953125 Z M 1.125 -5.984375 C 0.890625 -5.953125 0.703125 -5.765625 0.703125 -5.515625 C 0.703125 -5.25 0.921875 -5.046875 1.1875 -5.046875 L 1.25 -5.046875 C 1.484375 -5.078125 1.671875 -5.265625 1.671875 -5.515625 C 1.671875 -5.78125 1.453125 -5.984375 1.1875 -5.984375 Z M 1.125 -5.984375 "/>
</g>
</g>
<clipPath id="clip-0">
<path clip-rule="nonzero" d="M 0.140625 28 L 156.214844 28 L 156.214844 124 L 0.140625 124 Z M 0.140625 28 "/>
</clipPath>
</defs>
<path fill-rule="nonzero" fill="rgb(93.998718%, 93.998718%, 93.998718%)" fill-opacity="1" d="M 7.582031 109.855469 L 148.773438 109.855469 L 148.773438 42.082031 Z M 7.582031 109.855469 "/>
<g clip-path="url(#clip-0)">
<path fill="none" stroke-width="0.99628" stroke-linecap="butt" stroke-linejoin="miter" stroke="rgb(39.216614%, 45.489502%, 54.508972%)" stroke-opacity="1" stroke-miterlimit="10" d="M -0.000894846 -0.00121285 L 141.735127 -0.00121285 L 141.735127 68.033646 Z M -0.000894846 -0.00121285 " transform="matrix(0.996158, 0, 0, -0.996158, 7.582923, 109.854261)"/>
</g>
<path fill-rule="nonzero" fill="rgb(93.331909%, 96.470642%, 100%)" fill-opacity="1" stroke-width="0.99628" stroke-linecap="butt" stroke-linejoin="miter" stroke="rgb(14.509583%, 38.822937%, 92.156982%)" stroke-opacity="1" stroke-miterlimit="10" d="M 68.343748 27.74603 L 61.642217 42.12158 C 61.179501 43.117595 61.610846 44.301833 62.606861 44.768469 L 89.824726 57.461774 C 90.82074 57.92449 92.0089 57.493145 92.471615 56.49713 L 99.173147 42.125501 C 99.639784 41.125565 99.208439 39.941327 98.212424 39.474691 L 70.994559 26.785307 C 69.994623 26.31867 68.810385 26.750015 68.343748 27.74603 Z M 68.343748 27.74603 " transform="matrix(0.996158, 0, 0, -0.996158, 7.582923, 109.854261)"/>
<path fill="none" stroke-width="1.1457" stroke-linecap="butt" stroke-linejoin="miter" stroke="rgb(93.725586%, 26.667786%, 26.667786%)" stroke-opacity="1" stroke-miterlimit="10" d="M 82.205606 42.521554 L 82.205606 -3.408838 " transform="matrix(0.996158, 0, 0, -0.996158, 7.582923, 109.854261)"/>
<path fill-rule="nonzero" fill="rgb(93.725586%, 26.667786%, 26.667786%)" fill-opacity="1" stroke-width="1.1457" stroke-linecap="butt" stroke-linejoin="miter" stroke="rgb(93.725586%, 26.667786%, 26.667786%)" stroke-opacity="1" stroke-miterlimit="10" d="M 5.569749 0.0000558176 C 4.883518 0.172594 1.879789 1.137238 0.00147778 2.192072 L 0.00147778 -2.191961 C 1.879789 -1.137126 4.883518 -0.172482 5.569749 0.0000558176 Z M 5.569749 0.0000558176 " transform="matrix(0, 0.996158, 0.996158, 0, 89.472601, 113.248528)"/>
<g fill="rgb(93.725586%, 26.667786%, 26.667786%)" fill-opacity="1">
<use xlink:href="#glyph-0-0" x="87.054378" y="132.117385"/>
</g>
<g fill="rgb(93.725586%, 26.667786%, 26.667786%)" fill-opacity="1">
<use xlink:href="#glyph-0-1" x="85.597" y="134.62571"/>
</g>
<path fill="none" stroke-width="1.1457" stroke-linecap="butt" stroke-linejoin="miter" stroke="rgb(14.509583%, 38.822937%, 92.156982%)" stroke-opacity="1" stroke-miterlimit="10" d="M 82.205606 42.521554 L 64.398903 79.319198 " transform="matrix(0.996158, 0, 0, -0.996158, 7.582923, 109.854261)"/>
<path fill-rule="nonzero" fill="rgb(14.509583%, 38.822937%, 92.156982%)" fill-opacity="1" stroke-width="1.1457" stroke-linecap="butt" stroke-linejoin="miter" stroke="rgb(14.509583%, 38.822937%, 92.156982%)" stroke-opacity="1" stroke-miterlimit="10" d="M 5.567557 -0.000718365 C 4.884788 0.172813 1.880079 1.138743 -0.00152682 2.192935 L -0.000682638 -2.190051 C 1.879876 -1.139576 4.883994 -0.170962 5.567557 -0.000718365 Z M 5.567557 -0.000718365 " transform="matrix(-0.433856, -0.896661, -0.896661, 0.433856, 71.735189, 30.840181)"/>
<g fill="rgb(14.509583%, 38.822937%, 92.156982%)" fill-opacity="1">
<use xlink:href="#glyph-0-0" x="57.470492" y="17.344099"/>
</g>
<g fill="rgb(14.509583%, 38.822937%, 92.156982%)" fill-opacity="1">
<use xlink:href="#glyph-0-2" x="55.359634" y="19.852423"/>
</g>
<path fill="none" stroke-width="1.1457" stroke-linecap="butt" stroke-linejoin="miter" stroke="rgb(96.076965%, 61.959839%, 4.31366%)" stroke-opacity="1" stroke-miterlimit="10" d="M 82.205606 42.521554 L 56.760176 30.349785 " transform="matrix(0.996158, 0, 0, -0.996158, 7.582923, 109.854261)"/>
<path fill-rule="nonzero" fill="rgb(96.076965%, 61.959839%, 4.31366%)" fill-opacity="1" stroke-width="1.1457" stroke-linecap="butt" stroke-linejoin="miter" stroke="rgb(96.076965%, 61.959839%, 4.31366%)" stroke-opacity="1" stroke-miterlimit="10" d="M 5.569144 -0.00164068 C 4.885591 0.168793 1.879742 1.136935 0.00197451 2.19151 L -0.0000663677 -2.19361 C 1.877567 -1.139839 4.884511 -0.169754 5.569144 -0.00164068 Z M 5.569144 -0.00164068 " transform="matrix(-0.898614, 0.429782, 0.429782, 0.898614, 64.126309, 79.619674)"/>
<g fill="rgb(96.076965%, 61.959839%, 4.31366%)" fill-opacity="1">
<use xlink:href="#glyph-0-1" x="42.186447" y="84.65546"/>
</g>
<g fill="rgb(96.076965%, 61.959839%, 4.31366%)" fill-opacity="1">
<use xlink:href="#glyph-1-0" x="48.558867" y="86.447547"/>
</g>
<path fill="none" stroke-width="1.1457" stroke-linecap="butt" stroke-linejoin="miter" stroke="rgb(8.625793%, 63.920593%, 29.019165%)" stroke-opacity="1" stroke-miterlimit="10" d="M 82.205606 42.521554 L 65.285121 50.481829 " transform="matrix(0.996158, 0, 0, -0.996158, 7.582923, 109.854261)"/>
<path fill-rule="nonzero" fill="rgb(8.625793%, 63.920593%, 29.019165%)" fill-opacity="1" stroke-width="1.1457" stroke-linecap="butt" stroke-linejoin="miter" stroke="rgb(8.625793%, 63.920593%, 29.019165%)" stroke-opacity="1" stroke-miterlimit="10" d="M 5.570949 -0.0003905 C 4.883849 0.17035 1.87915 1.140093 0.000904978 2.193518 L 0.00168616 -2.192075 C 1.881 -1.138696 4.884471 -0.17174 5.570949 -0.0003905 Z M 5.570949 -0.0003905 " transform="matrix(-0.901313, -0.424134, -0.424134, 0.901313, 72.618661, 59.566306)"/>
<g fill="rgb(8.625793%, 63.920593%, 29.019165%)" fill-opacity="1">
<use xlink:href="#glyph-0-0" x="63.878773" y="47.777708"/>
</g>
<g fill="rgb(8.625793%, 63.920593%, 29.019165%)" fill-opacity="1">
<use xlink:href="#glyph-0-3" x="62.506068" y="50.396606"/>
</g>
<path fill="none" stroke-width="0.99628" stroke-linecap="butt" stroke-linejoin="miter" stroke="rgb(96.076965%, 61.959839%, 4.31366%)" stroke-opacity="1" stroke-miterlimit="10" d="M 117.638631 -0.00121285 C 117.638631 3.104471 116.960243 6.170941 115.646602 8.986447 " transform="matrix(0.996158, 0, 0, -0.996158, 7.582923, 109.854261)"/>
<g fill="rgb(96.076965%, 61.959839%, 4.31366%)" fill-opacity="1">
<use xlink:href="#glyph-0-4" x="130.772744" y="105.394463"/>
</g>
<g fill="rgb(11.764526%, 22.744751%, 54.116821%)" fill-opacity="1">
<use xlink:href="#glyph-2-0" x="34.922466" y="27.349505"/>
<use xlink:href="#glyph-2-1" x="38.512216" y="27.349505"/>
<use xlink:href="#glyph-2-2" x="43.10145" y="27.349505"/>
<use xlink:href="#glyph-2-3" x="50.749876" y="27.349505"/>
<use xlink:href="#glyph-2-1" x="55.848231" y="27.349505"/>
</g>
<g fill="rgb(11.764526%, 22.744751%, 54.116821%)" fill-opacity="1">
<use xlink:href="#glyph-2-4" x="63.492192" y="27.349505"/>
</g>
<g fill="rgb(11.764526%, 22.744751%, 54.116821%)" fill-opacity="1">
<use xlink:href="#glyph-2-5" x="68.599479" y="27.349505"/>
</g>
<g fill="rgb(11.764526%, 22.744751%, 54.116821%)" fill-opacity="1">
<use xlink:href="#glyph-2-6" x="75.736998" y="27.349505"/>
<use xlink:href="#glyph-2-0" x="79.306204" y="27.349505"/>
<use xlink:href="#glyph-2-1" x="82.895953" y="27.349505"/>
<use xlink:href="#glyph-2-7" x="87.485187" y="27.349505"/>
<use xlink:href="#glyph-2-8" x="92.583543" y="27.349505"/>
<use xlink:href="#glyph-2-9" x="96.203661" y="27.349505"/>
<use xlink:href="#glyph-2-5" x="99.008292" y="27.349505"/>
<use xlink:href="#glyph-2-0" x="103.091085" y="27.349505"/>
<use xlink:href="#glyph-2-5" x="106.680835" y="27.349505"/>
<use xlink:href="#glyph-2-7" x="110.763627" y="27.349505"/>
<use xlink:href="#glyph-2-10" x="115.861983" y="27.349505"/>
<use xlink:href="#glyph-2-11" x="119.941203" y="27.349505"/>
<use xlink:href="#glyph-2-1" x="122.490381" y="27.349505"/>
</g>
</svg>
